<?xml version="1.0" encoding="UTF-8"?><svg id="_이어_1" xmlns="http://www.w3.org/2000/svg" viewBox="0 0 24 24"><defs><style>.cls-1{fill:#734f2f;}</style></defs><path class="cls-1" d="M20.54,3.42c-1.92-1.84-5-1.8-6.87,.08L3.32,13.9c-.91,.91-1.4,2.11-1.38,3.39,.02,1.27,.53,2.47,1.46,3.36,.91,.87,2.1,1.35,3.36,1.36h.09c1.3-.01,2.51-.52,3.42-1.44l10.35-10.4c.91-.91,1.4-2.11,1.38-3.39-.02-1.27-.53-2.47-1.46-3.36ZM4.4,20.07h0s.02,.02,.03,.03l-.04-.03Zm12.55-7.99h0l-5.33,5.27h0l-.36,.35-4.98-5.03,.36-.35h0l.14-.13,.22-.22h0l5.33-5.27h0l.36-.35,4.98,5.03-.71,.7Z"/></svg>