<?xml version="1.0" encoding="UTF-8"?><svg id="_이어_19" xmlns="http://www.w3.org/2000/svg" viewBox="0 0 24 24"><defs><style>.cls-1{fill:#734f2f;}</style></defs><polygon class="cls-1" points="8.58 22.17 3.08 22.17 3.08 21.17 7.58 21.17 7.58 17.17 11.58 17.17 11.58 13.17 15.58 13.17 15.58 9.17 19.58 9.17 19.58 5.17 22.08 5.17 22.08 6.17 20.58 6.17 20.58 10.17 16.58 10.17 16.58 14.17 12.58 14.17 12.58 18.17 8.58 18.17 8.58 22.17"/><path class="cls-1" d="M10.08,7.67c-.13,0-.26-.05-.35-.15-.2-.2-.2-.51,0-.71l1.65-1.65-1.65-1.65c-.2-.2-.2-.51,0-.71s.51-.2,.71,0l2.35,2.35-2.35,2.35c-.1,.1-.23,.15-.35,.15Z"/><path class="cls-1" d="M3.58,16.17s-.08,0-.12-.01c-.27-.07-.43-.34-.36-.61l1-4c.07-.27,.34-.43,.61-.36,.27,.07,.43,.34,.36,.61l-1,4c-.06,.23-.26,.38-.49,.38Z"/><polygon class="cls-1" points="10.08 10.17 10.08 11.17 12.08 11.17 12.08 13.67 13.08 13.67 13.08 10.17 10.08 10.17"/><polygon class="cls-1" points="9.08 13.17 9.08 13.17 8.57 13.17 7.59 18.07 8.57 18.27 9.57 13.27 9.08 13.17"/><path class="cls-1" d="M8.15,14c-.68,0-1.39-.27-2.05-.8-.85-.68-1.54-1.73-1.92-2.94s-.44-2.46-.15-3.51c.32-1.13,.99-1.91,1.89-2.2,.19-.06,.4-.1,.65-.11l.37-.02,.13,.34c.19,.53,.8,.81,1.34,.57l.3-.13,.24,.22c.77,.7,1.37,1.65,1.72,2.75,.84,2.62,.07,5.12-1.74,5.71-.25,.08-.51,.12-.76,.12Zm-1.85-8.52s-.05,.01-.07,.02c-.57,.18-1.01,.72-1.23,1.51-.24,.87-.19,1.91,.13,2.93,.33,1.03,.9,1.9,1.6,2.47,.64,.51,1.31,.69,1.89,.51,1.24-.4,1.74-2.44,1.1-4.45-.26-.81-.69-1.55-1.23-2.11-.83,.21-1.74-.17-2.18-.89Z"/><ellipse class="cls-1" cx="6.42" cy="8.95" rx=".5" ry="1" transform="translate(-2.7 2.77) rotate(-20.21)"/><ellipse class="cls-1" cx="8.58" cy="7.95" rx=".5" ry="1" transform="translate(-2.22 3.45) rotate(-20.21)"/><path class="cls-1" d="M7,11s2,1,2-1l-2,1Z"/></svg>