<?xml version="1.0" encoding="UTF-8"?><svg id="_이어_10" xmlns="http://www.w3.org/2000/svg" viewBox="0 0 24 24"><defs><style>.cls-1{fill:#cd9c50;}</style></defs><g><path class="cls-1" d="M20,22H7.46c-1.91,0-3.46-1.35-3.46-3s1.55-3,3.46-3h12.54v1H7.46c-1.23,0-2.23,.9-2.23,2s1,2,2.23,2h12.54v1Z"/><rect class="cls-1" x="19" y="2" width="1" height="15"/><rect class="cls-1" x="17" y="2" width="2" height="1"/><path class="cls-1" d="M20,21c-1.1,0-2-.9-2-2s.9-2,2-2v-1c-1.66,0-3,1.34-3,3s1.34,3,3,3v-1Z"/><path class="cls-1" d="M7,21c-1.1,0-2-.9-2-2V5c0-1.1,.9-2,2-2h10v-1H7c-1.66,0-3,1.34-3,3v14c0,1.66,1.34,3,3,3h10v-1H7Z"/></g><g><rect class="cls-1" x="9" y="6.15" width="8" height="2.31"/><path class="cls-1" d="M5,3v14h14V3H5Zm12,10.77H9v-1.08h8v1.08Zm0-2.15H9v-1.08h8v1.08Zm1-2.15H8V5.15h10v4.31Z"/></g></svg>