<?xml version="1.0" encoding="UTF-8"?><svg id="_이어_21" xmlns="http://www.w3.org/2000/svg" viewBox="0 0 24 24"><defs><style>.cls-1{fill:#734f2f;}.cls-2{fill:none;stroke:#734f2f;stroke-linecap:round;stroke-miterlimit:10;}</style></defs><path class="cls-1" d="M12,3c4.96,0,9,4.04,9,9s-4.04,9-9,9S3,16.96,3,12,7.04,3,12,3m0-1C6.48,2,2,6.48,2,12s4.48,10,10,10,10-4.48,10-10S17.52,2,12,2h0Z"/><line class="cls-2" x1="6" y1="9" x2="10" y2="8"/><line class="cls-2" x1="14" y1="8" x2="18" y2="9"/><path class="cls-1" d="M17.5,16c-.28,0-.5-.22-.5-.5,0-3.17,2.06-5.27,2.15-5.35,.2-.2,.51-.19,.71,0,.2,.19,.2,.51,0,.71-.02,.02-1.85,1.9-1.85,4.65,0,.28-.22,.5-.5,.5Z"/><path class="cls-1" d="M6.5,16c-.28,0-.5-.22-.5-.5,0-2.75-1.84-4.63-1.85-4.65-.19-.2-.19-.51,0-.71,.19-.19,.51-.2,.71,0,.09,.09,2.15,2.18,2.15,5.35,0,.28-.22,.5-.5,.5Z"/><g><path class="cls-2" d="M10,16s-1,4,2,4"/><path class="cls-2" d="M13.84,16s1,4-2,4"/></g><path class="cls-2" d="M9,16s1-1,3-1"/><path class="cls-2" d="M15,16s-1-1-3-1v3"/></svg>