<svg width="16" height="20" viewBox="0 0 16 20" fill="none" xmlns="http://www.w3.org/2000/svg">
<path d="M16 20H3.46C1.55 20 0 18.65 0 17C0 15.35 1.55 14 3.46 14H16V15H3.46C2.23 15 1.23 15.9 1.23 17C1.23 18.1 2.23 19 3.46 19H16V20Z" fill="#CD9C50"/>
<path d="M16 0H15V15H16V0Z" fill="#CD9C50"/>
<path d="M15 0H13V1H15V0Z" fill="#CD9C50"/>
<path d="M16 19C14.9 19 14 18.1 14 17C14 15.9 14.9 15 16 15V14C14.34 14 13 15.34 13 17C13 18.66 14.34 20 16 20V19Z" fill="#CD9C50"/>
<path d="M3 19C1.9 19 1 18.1 1 17V3C1 1.9 1.9 1 3 1H13V0H3C1.34 0 0 1.34 0 3V17C0 18.66 1.34 20 3 20H13V19H3Z" fill="#CD9C50"/>
<path d="M13 4.15002H5V6.46002H13V4.15002Z" fill="#CD9C50"/>
<path d="M1 1V15H15V1H1ZM13 11.77H5V10.69H13V11.77ZM13 9.62H5V8.54H13V9.62ZM14 7.47H4V3.15H14V7.46V7.47Z" fill="#CD9C50"/>
</svg>
