<?xml version="1.0" encoding="UTF-8"?><svg id="_이어_13" xmlns="http://www.w3.org/2000/svg" viewBox="0 0 24 24"><defs><style>.cls-1{fill:#734f2f;}.cls-2{fill:none;stroke:#734f2f;stroke-linecap:round;stroke-miterlimit:10;}</style></defs><path class="cls-1" d="M7.5,10c.83,0,1.5,.67,1.5,1.5s-.67,1.5-1.5,1.5-1.5-.67-1.5-1.5,.67-1.5,1.5-1.5m0-1c-1.38,0-2.5,1.12-2.5,2.5s1.12,2.5,2.5,2.5,2.5-1.12,2.5-2.5-1.12-2.5-2.5-2.5h0Z"/><path class="cls-1" d="M16.5,10c.83,0,1.5,.67,1.5,1.5s-.67,1.5-1.5,1.5-1.5-.67-1.5-1.5,.67-1.5,1.5-1.5m0-1c-1.38,0-2.5,1.12-2.5,2.5s1.12,2.5,2.5,2.5,2.5-1.12,2.5-2.5-1.12-2.5-2.5-2.5h0Z"/><line class="cls-2" x1="8" y1="6" x2="5" y2="8"/><line class="cls-2" x1="16" y1="6" x2="19" y2="8"/><path class="cls-1" d="M14.78,16.97c-1.95-1.3-3.54-1.05-4.53-.63l.58,.84c.76-.27,1.94-.35,3.4,.62,.08,.06,.18,.08,.28,.08,.16,0,.32-.08,.42-.22,.15-.23,.09-.54-.14-.69Z"/><path class="cls-1" d="M12,3c4.96,0,9,4.04,9,9,0,4.62-3.51,8.45-8,8.94v-.94c0-2.93-2.39-4-4-4-1.97,0-3.04,1.04-3.57,2.14-1.56-1.66-2.43-3.83-2.43-6.14C3,7.04,7.04,3,12,3m0-1C6.48,2,2,6.48,2,12c0,3.27,1.58,6.16,4,7.99,0-.14,.07-2.99,3-2.99,0,0,3,0,3,3v2c5.52,0,10-4.48,10-10S17.52,2,12,2h0Z"/><rect class="cls-1" x="5" y="19" width="1" height="4"/><rect class="cls-1" x="12" y="20" width="1" height="3"/></svg>