<?xml version="1.0" encoding="UTF-8"?><svg id="_이어_18" xmlns="http://www.w3.org/2000/svg" viewBox="0 0 24 24"><defs><style>.cls-1{fill:#734f2f;}</style></defs><path class="cls-1" d="M12,3c4.96,0,9,4.04,9,9s-4.04,9-9,9S3,16.96,3,12,7.04,3,12,3m0-1C6.48,2,2,6.48,2,12s4.48,10,10,10,10-4.48,10-10S17.52,2,12,2h0Z"/><path class="cls-1" d="M6.23,14.33c-.1,0-.19-.03-.28-.08-1.88-1.26-2.39-3.81-1.14-5.69,1.07-1.6,3.25-2.04,4.85-.97,.67,.44,1.12,1.12,1.28,1.91,.16,.79,0,1.58-.45,2.25-.79,1.18-2.39,1.5-3.57,.71-1.02-.68-1.3-2.07-.62-3.09,.29-.43,.72-.72,1.23-.83,.51-.1,1.03,0,1.46,.29,.23,.15,.29,.46,.14,.69-.15,.23-.47,.29-.69,.14-.21-.14-.46-.19-.7-.14-.25,.05-.46,.19-.6,.4-.18,.27-.25,.6-.18,.92,.06,.32,.25,.6,.52,.78,.73,.48,1.7,.28,2.19-.44,.3-.44,.4-.98,.3-1.5s-.41-.97-.85-1.27c-1.14-.76-2.7-.45-3.47,.69-.95,1.42-.56,3.36,.86,4.31,.23,.15,.29,.46,.14,.69-.1,.14-.25,.22-.42,.22Z"/><path class="cls-1" d="M17.9,14.33c-.16,0-.32-.08-.42-.22-.15-.23-.09-.54,.14-.69,1.42-.95,1.81-2.88,.86-4.31-.76-1.15-2.32-1.46-3.47-.69-.92,.61-1.16,1.85-.55,2.77,.48,.72,1.46,.92,2.19,.44,.27-.18,.46-.46,.52-.78,.06-.32,0-.65-.18-.92-.14-.21-.35-.35-.6-.4-.25-.05-.5,0-.7,.14-.23,.15-.54,.09-.69-.14-.15-.23-.09-.54,.14-.69,.43-.29,.95-.39,1.46-.29,.51,.1,.95,.4,1.23,.83,.68,1.02,.4,2.41-.62,3.09-1.18,.79-2.78,.47-3.57-.71-.92-1.38-.54-3.24,.83-4.16,1.6-1.07,3.78-.63,4.85,.97,1.25,1.88,.74,4.44-1.14,5.69-.08,.06-.18,.08-.28,.08Z"/></svg>