<?xml version="1.0" encoding="UTF-8"?><svg id="_이어_20" xmlns="http://www.w3.org/2000/svg" viewBox="0 0 24 24"><defs><style>.cls-1{fill:#734f2f;}</style></defs><path class="cls-1" d="M11,10c-2.21,0-4-1.79-4-4s1.79-4,4-4,4,1.79,4,4-1.79,4-4,4Zm0-7c-1.65,0-3,1.35-3,3s1.35,3,3,3,3-1.35,3-3-1.35-3-3-3Z"/><path class="cls-1" d="M17.5,9c-.28,0-.5-.22-.5-.5V2.5c0-.28,.22-.5,.5-.5s.5,.22,.5,.5v6c0,.28-.22,.5-.5,.5Z"/><path class="cls-1" d="M21.5,12c-.28,0-.5-.22-.5-.5V2.5c0-.28,.22-.5,.5-.5s.5,.22,.5,.5V11.5c0,.28-.22,.5-.5,.5Z"/><path class="cls-1" d="M19.5,6c-.28,0-.5-.22-.5-.5V2.5c0-.28,.22-.5,.5-.5s.5,.22,.5,.5v3c0,.28-.22,.5-.5,.5Z"/><path class="cls-1" d="M2.5,12c-.28,0-.5-.22-.5-.5V2.5c0-.28,.22-.5,.5-.5s.5,.22,.5,.5V11.5c0,.28-.22,.5-.5,.5Z"/><path class="cls-1" d="M4.5,9c-.28,0-.5-.22-.5-.5V2.5c0-.28,.22-.5,.5-.5s.5,.22,.5,.5v6c0,.28-.22,.5-.5,.5Z"/><path class="cls-1" d="M18.49,18c-.17,0-.35-.03-.52-.08l-7.68-2.29c-.96-.29-1.5-1.3-1.22-2.26l.11-.36c.14-.46,.45-.85,.88-1.08,.42-.23,.92-.28,1.38-.14l7.68,2.29c.46,.14,.85,.45,1.08,.88,.23,.43,.28,.92,.14,1.38l-.11,.36c-.14,.46-.45,.85-.88,1.08-.27,.14-.56,.22-.86,.22Zm-7.57-5.28c-.13,0-.27,.03-.39,.1-.19,.1-.33,.27-.39,.48l-.11,.36c-.06,.21-.04,.43,.06,.62,.1,.19,.27,.33,.48,.39l7.68,2.29c.21,.06,.43,.04,.62-.06,.19-.1,.33-.27,.39-.48l.11-.36c.06-.21,.04-.43-.06-.62-.1-.19-.27-.33-.48-.39l-7.68-2.29c-.08-.02-.16-.04-.23-.04Z"/><path class="cls-1" d="M13,22h-3.99c-1.1,0-2-.9-2-2v-6.99c0-1.1,.9-2,2-2h3.99c1.1,0,2,.9,2,2v.9l-3.85-1.15c-.21-.06-.43-.04-.62,.06-.19,.1-.33,.27-.39,.48l-.11,.36c-.13,.43,.12,.88,.55,1.01l4.42,1.32v4c0,1.1-.9,2-2,2Zm-3.99-10c-.55,0-1,.45-1,1v6.99c0,.55,.45,1,1,1h3.99c.55,0,1-.45,1-1v-3.26l-3.71-1.11c-.46-.14-.85-.45-1.08-.88-.23-.43-.28-.92-.14-1.38l.11-.36c.13-.42,.4-.78,.77-1.01h-.95Zm3.12,0l1.76,.52c-.17-.31-.5-.52-.88-.52h-.87Z"/><path class="cls-1" d="M18.19,22h-.37c-1,0-1.81-.81-1.81-1.81v-3.9l2.26,.67c.31,.09,.65,0,.86-.26l.88-1.06v4.54c0,1-.81,1.81-1.81,1.81Zm-1.19-4.37v2.55c0,.45,.37,.81,.81,.81h.37c.45,0,.81-.37,.81-.81v-2.26c-.33,.1-.69,.1-1.03,0l-.97-.29Z"/><path class="cls-1" d="M11.5,6c-.18,0-.36-.1-.45-.28-.12-.25-.02-.55,.22-.67l2-1c.25-.12,.55-.02,.67,.22,.12,.25,.02,.55-.22,.67l-2,1c-.07,.04-.15,.05-.22,.05Z"/></svg>