<?xml version="1.0" encoding="UTF-8"?><svg id="_이어_15" xmlns="http://www.w3.org/2000/svg" viewBox="0 0 24 24"><defs><style>.cls-1{fill:#734f2f;}</style></defs><path class="cls-1" d="M12,8.5c-3.31,0-6-2.69-6-6,0-.28,.22-.5,.5-.5s.5,.22,.5,.5c0,2.76,2.24,5,5,5s5-2.24,5-5c0-.28,.22-.5,.5-.5s.5,.22,.5,.5c0,3.31-2.69,6-6,6Z"/><path class="cls-1" d="M19,10H5c-1.66,0-3,1.34-3,3v9h1V13c0-1.1,.9-2,2-2h14c1.1,0,2,.9,2,2v9h1V13c0-1.66-1.34-3-3-3Z"/><path class="cls-1" d="M13.5,6.5c-.28,0-.5-.22-.5-.5,0-.55-.45-1-1-1s-1,.45-1,1c0,.28-.22,.5-.5,.5s-.5-.22-.5-.5c0-1.1,.9-2,2-2s2,.9,2,2c0,.28-.22,.5-.5,.5Z"/><path class="cls-1" d="M12,22s-4,0-4-6c0,0,1,0,2,2,0,0-1-3,0-5,0,0,1,3,2,3,0,0,2-2,0-4,0,0,4,0,3,5,0,0,0,1,1-1,0,0,1,3-1,5,0,0-1,1-3,1Z"/></svg>