<svg width="19" height="19" viewBox="0 0 19 19" fill="none" xmlns="http://www.w3.org/2000/svg">
<path d="M5 7H2C1.44772 7 1 7.44772 1 8V18C1 18.5523 1.44772 19 2 19H5C5.55228 19 6 18.5523 6 18V8C6 7.44772 5.55228 7 5 7Z" fill="#CD9C50"/>
<path d="M11 0H8C7.44772 0 7 0.447715 7 1V18C7 18.5523 7.44772 19 8 19H11C11.5523 19 12 18.5523 12 18V1C12 0.447715 11.5523 0 11 0Z" fill="#CD9C50"/>
<path d="M14 11H17C17.55 11 18 11.45 18 12V19H13V12C13 11.45 13.45 11 14 11Z" fill="#CD9C50"/>
<path d="M19 18H0V19H19V18Z" fill="#CD9C50"/>
<path d="M18 17H17V18H18V17Z" fill="#CD9C50"/>
</svg>
