<?xml version="1.0" encoding="UTF-8"?><svg id="_이어_16" xmlns="http://www.w3.org/2000/svg" viewBox="0 0 24 24"><defs><style>.cls-1{fill:#734f2f;}.cls-2{fill:none;stroke:#734f2f;stroke-linecap:round;stroke-miterlimit:10;}</style></defs><path class="cls-1" d="M12,3c4.96,0,9,4.04,9,9s-4.04,9-9,9S3,16.96,3,12,7.04,3,12,3m0-1C6.48,2,2,6.48,2,12s4.48,10,10,10,10-4.48,10-10S17.52,2,12,2h0Z"/><path class="cls-1" d="M14.5,18.89c-.1,0-.19-.03-.28-.08-2.63-1.75-4.35-.08-4.37-.06-.2,.2-.51,.2-.71,0s-.2-.51,0-.71c.02-.02,2.33-2.27,5.63-.06,.23,.15,.29,.46,.14,.69-.1,.14-.25,.22-.42,.22Z"/><line class="cls-2" x1="6" y1="11" x2="10" y2="11"/><line class="cls-2" x1="14" y1="11" x2="18" y2="11"/></svg>